PathFileType	4	(X/Y/Z)	Walk5.trc
DataRate	CameraRate	NumFrames	NumMarkers	Units	OrigDataRate	OrigDataStartFrame	OrigNumFrames
200.000000	200.000000	5	61	mm	200.000000	488	813
Frame#	Times		RCAR		LToe		LMT5		LTB1		RWRU		LLFC		RWRR		RFHD		RACR1		RFA1		LMT1		LUA1		LFA1		LTH2		LElbow		STRN		LACR1		LCAR		LASI		RTH3		RTB2		LWRU		RPSI		RLFC		LFHD		LWRR		C7		LPSI		RToe		RMT1		RMT5		RMFC		CLAV		RTB3		RTB1		LMFC		RTB4		LTH1		LTH3		RTH2		RCAL		RASI		RLMAL		LTB2		RMMAL		LTB4		LBHD		RBHD		RTH4		RBack		LTB3		RUA1		LMMAL		LTH4		RElbow		RTH1		LCAL		T10		LElbowM		LLMAL		RElbowM
			X1	Y1	Z1	X2	Y2	Z2	X3	Y3	Z3	X4	Y4	Z4	X5	Y5	Z5	X6	Y6	Z6	X7	Y7	Z7	X8	Y8	Z8	X9	Y9	Z9	X10	Y10	Z10	X11	Y11	Z11	X12	Y12	Z12	X13	Y13	Z13	X14	Y14	Z14	X15	Y15	Z15	X16	Y16	Z16	X17	Y17	Z17	X18	Y18	Z18	X19	Y19	Z19	X20	Y20	Z20	X21	Y21	Z21	X22	Y22	Z22	X23	Y23	Z23	X24	Y24	Z24	X25	Y25	Z25	X26	Y26	Z26	X27	Y27	Z27	X28	Y28	Z28	X29	Y29	Z29	X30	Y30	Z30	X31	Y31	Z31	X32	Y32	Z32	X33	Y33	Z33	X34	Y34	Z34	X35	Y35	Z35	X36	Y36	Z36	X37	Y37	Z37	X38	Y38	Z38	X39	Y39	Z39	X40	Y40	Z40	X41	Y41	Z41	X42	Y42	Z42	X43	Y43	Z43	X44	Y44	Z44	X45	Y45	Z45	X46	Y46	Z46	X47	Y47	Z47	X48	Y48	Z48	X49	Y49	Z49	X50	Y50	Z50	X51	Y51	Z51	X52	Y52	Z52	X53	Y53	Z53	X54	Y54	Z54	X55	Y55	Z55	X56	Y56	Z56	X57	Y57	Z57	X58	Y58	Z58	X59	Y59	Z59	X60	Y60	Z60	X61	Y61	Z61

488	2.44	-313.65	848.92	372.56	-100.53	31.395	-43.173	-202.63	29.134	-115	-305.78	369.47	-40.655	-371.2	891.28	368.68	-362.99	505.7	-150.72	-302.58	892.78	312.85	-226.76	1706.1	96.491	-356.95	1505.3	204.57	-346.37	1034.8	338.42	-156.31	46.405	-27.029	-408.33	1357.4	-248.17	-379.65	1055.2	-301.6	-315.54	749.17	-191.51	-453.83	1190.8	-293.97	-249.3	1302.9	0.55225	-386.02	1540.6	-165.08	-346.69	888.43	-312.71	-326.54	1042.5	-151.82	-431.16	635.4	216.42	-563.5	319.78	188.04	-416.88	927.71	-314	-549.74	1073.8	57.755	-429.17	510.47	216.91	-225.68	1714.3	-8.1308	-342.86	927.12	-256.2	-476.22	1566.6	36.411	-551.4	1085.8	-51.358	-677.07	41.598	106.76	-694.79	91.351	96.887	-745.59	94.787	179.38	-427.73	496.11	67.856	-312.59	1476.5	3.3344	-633.01	276.34	119.91	-491.08	374.58	131.83	-357.54	506.37	-8.1646	-563.01	324.71	125.9	-387.28	823.48	-208.14	-361.23	653.81	-177.12	-378.86	726.1	218.16	-819.84	268.05	122.95	-331.81	1042.6	162.72	-763.22	236.77	166.45	-278.95	281.12	-93.046	-720.12	231.99	73.758	-301.89	284.57	-34.098	-391.91	1703.4	-30.492	-397.38	1696.3	111.34	-438.99	718.53	220.22	-527.93	1445.4	153.07	-293.38	199.05	-28.506	-376.39	1325.4	276.02	-300.15	97.801	15.399	-374.28	738.1	-193.92	-424.01	1168.1	321.56	-445.42	806.86	223.8	-381.96	43.193	-40.156	-529.7	1211.7	9.0523	-489.75	1166.6	-209.64	-319.66	66.934	-83.196	-454.26	1142.2	232.21
489	2.445	-311.29	848.97	372.33	-100.56	31.366	-43.266	-202.68	29.049	-115.09	-304.78	369.52	-41.063	-368.54	891.77	368.47	-361.47	505.89	-151.18	-299.88	892.85	312.58	-221.71	1706.7	96.192	-352.12	1505.9	204.15	-342.93	1035.2	338.01	-156.29	46.404	-27.131	-402.76	1358	-248.88	-373.53	1056.1	-302.44	-311.99	749.34	-191.39	-448.21	1191.5	-295.16	-244.3	1303.3	0.19263	-380.57	1541.1	-165.54	-339.82	889.6	-313.36	-321.78	1042.9	-152.1	-421.35	635.58	216.25	-552.42	321.13	187.77	-410.21	928.47	-314.75	-544.87	1074.1	57.552	-417.63	511.03	216.82	-220.5	1714.9	-8.4234	-336.23	928.37	-256.91	-471.07	1567.2	35.759	-546.54	1086.4	-51.438	-666.29	43.429	109.14	-683.95	93.332	98.493	-734.57	97.746	181.11	-416.56	496.74	67.592	-307.46	1476.9	2.9274	-622.29	278.02	119.73	-479.87	375.7	131.51	-356.35	506.58	-8.5676	-552.06	326.14	125.63	-383.23	824.07	-208.43	-358.3	654.23	-177.42	-370.22	726.96	217.92	-809.39	270.14	122.83	-327.15	1043.1	162.77	-752.65	239.31	166.65	-278.33	281	-93.383	-709.55	233.91	73.78	-301.16	284.62	-34.404	-386.71	1704	-31	-392.35	1696.7	110.83	-430.29	718.62	220.06	-523.15	1446.1	152.21	-292.95	199.05	-28.734	-371.99	1325.9	275.55	-300.07	97.874	15.314	-370.82	738.61	-194.23	-420	1168.8	321.03	-437.82	806.87	223.59	-381.98	43.174	-40.166	-524.78	1212.4	8.6368	-484.46	1167.2	-211.04	-319.68	66.935	-83.242	-450.33	1142.9	231.71
490	2.45	-308.87	849.04	372.1	-100.58	31.352	-43.35	-202.72	28.964	-115.19	-303.77	369.57	-41.451	-365.83	892.25	368.25	-359.94	506.09	-151.61	-297.13	892.94	312.32	-216.68	1707.2	95.886	-347.31	1506.4	203.75	-339.5	1035.5	337.62	-156.28	46.404	-27.227	-397.18	1358.6	-249.55	-367.38	1057	-303.25	-308.4	749.52	-191.19	-442.56	1192.2	-296.31	-239.32	1303.6	-0.12639	-375.16	1541.5	-165.97	-332.93	890.74	-314.02	-317.05	1043.4	-152.43	-411.61	635.85	216.02	-541.26	322.44	187.51	-403.52	929.19	-315.51	-540.02	1074.4	57.381	-406.18	511.71	216.68	-215.34	1715.4	-8.7216	-329.58	929.58	-257.64	-465.94	1567.8	35.132	-541.72	1087	-51.497	-654.87	45.214	111.47	-672.6	95.151	100.07	-723.07	100.45	182.81	-405.44	497.44	67.3	-302.37	1477.4	2.5496	-611.38	279.53	119.56	-468.58	376.8	131.19	-355.15	506.79	-8.9377	-540.97	327.46	125.36	-379.14	824.65	-208.69	-355.33	654.66	-177.68	-361.64	727.88	217.69	-798.77	271.78	122.64	-322.49	1043.5	162.82	-741.86	241.5	166.79	-277.72	280.88	-93.705	-698.72	235.54	73.771	-300.43	284.66	-34.692	-381.53	1704.5	-31.499	-387.33	1697.2	110.32	-421.65	718.79	219.86	-518.39	1446.8	151.39	-292.51	199.04	-28.95	-367.64	1326.4	275.11	-299.99	97.945	15.23	-367.34	739.11	-194.52	-416.03	1169.4	320.52	-430.29	806.92	223.34	-381.99	43.159	-40.172	-519.88	1213	8.2405	-479.13	1167.7	-212.41	-319.7	66.94	-83.28	-446.42	1143.5	231.23
491	2.455	-306.38	849.14	371.89	-100.61	31.347	-43.424	-202.77	28.879	-115.28	-302.74	369.61	-41.815	-363.09	892.7	368.03	-358.4	506.28	-151.99	-294.33	893.06	312.08	-211.65	1707.7	95.573	-342.54	1506.8	203.39	-336.09	1035.8	337.24	-156.27	46.404	-27.318	-391.58	1359.1	-250.18	-361.2	1057.9	-304.04	-304.78	749.69	-190.95	-436.88	1192.8	-297.42	-234.38	1304	-0.40481	-369.78	1542	-166.37	-326	891.86	-314.68	-312.37	1043.8	-152.79	-401.95	636.19	215.74	-530.01	323.68	187.27	-396.79	929.9	-316.28	-535.17	1074.7	57.239	-394.84	512.5	216.5	-210.2	1716	-9.0262	-322.9	930.75	-258.36	-460.84	1568.4	34.532	-536.92	1087.5	-51.543	-642.85	46.927	113.74	-660.77	96.793	101.6	-711.12	102.87	184.46	-394.37	498.2	66.985	-297.3	1477.8	2.2003	-600.27	280.85	119.39	-457.22	377.88	130.89	-353.93	506.99	-9.2729	-529.76	328.68	125.12	-375.01	825.21	-208.91	-352.36	655.07	-177.91	-353.13	728.87	217.46	-787.99	272.98	122.39	-317.83	1043.9	162.89	-730.84	243.33	166.87	-277.1	280.75	-94.012	-687.64	236.87	73.738	-299.67	284.7	-34.961	-376.38	1705	-31.989	-382.32	1697.6	109.83	-413.07	719.02	219.61	-513.66	1447.5	150.6	-292.06	199.02	-29.152	-363.33	1326.8	274.71	-299.91	98.011	15.148	-363.83	739.61	-194.79	-412.12	1170	320.02	-422.82	807.04	223.07	-382.01	43.146	-40.174	-515	1213.6	7.8597	-473.77	1168.2	-213.75	-319.73	66.95	-83.307	-442.52	1144.1	230.76
492	2.46	-303.82	849.27	371.69	-100.63	31.349	-43.487	-202.81	28.794	-115.37	-301.68	369.65	-42.152	-360.31	893.14	367.78	-356.86	506.46	-152.34	-291.47	893.19	311.85	-206.64	1708.2	95.254	-337.79	1507.3	203.05	-332.7	1036.1	336.89	-156.26	46.404	-27.401	-385.97	1359.7	-250.77	-354.99	1058.7	-304.81	-301.16	749.83	-190.67	-431.18	1193.4	-298.48	-229.47	1304.3	-0.64314	-364.44	1542.3	-166.74	-319.06	892.96	-315.37	-307.72	1044.3	-153.18	-392.37	636.61	215.4	-518.68	324.86	187.04	-390.05	930.59	-317.05	-530.33	1075.1	57.119	-383.61	513.4	216.29	-205.08	1716.5	-9.3372	-316.21	931.88	-259.08	-455.76	1569	33.962	-532.14	1088.1	-51.581	-630.25	48.547	115.91	-648.48	98.242	103.07	-698.74	104.99	186.04	-383.35	499	66.649	-292.26	1478.2	1.8788	-588.99	281.97	119.24	-445.82	378.93	130.6	-352.67	507.2	-9.5722	-518.42	329.78	124.89	-370.87	825.74	-209.11	-349.39	655.47	-178.12	-344.71	729.91	217.24	-777.04	273.72	122.1	-313.15	1044.3	162.96	-719.61	244.79	166.89	-276.46	280.62	-94.301	-676.32	237.9	73.688	-298.9	284.74	-35.208	-371.25	1705.5	-32.469	-377.31	1698.1	109.34	-404.56	719.31	219.31	-508.95	1448.1	149.85	-291.6	199	-29.34	-359.07	1327.3	274.33	-299.82	98.072	15.071	-360.33	740.09	-195.03	-408.26	1170.5	319.55	-415.42	807.19	222.76	-382.03	43.137	-40.17	-510.13	1214.2	7.4911	-468.38	1168.6	-215.03	-319.76	66.964	-83.325	-438.62	1144.7	230.3
